#N canvas 612 242 394 439 10;
#X obj 151 320 osc~ 440;
#X obj 136 341 *~;
#X obj 136 385 dac~;
#X obj 87 320 vline~;
#X msg 87 299 1 \, 0 250;
#X obj 313 207 f;
#X obj 277 236 f;
#X obj 277 258 print phase;
#X obj 274 161 print downbeat;
#X obj 136 363 *~ 0.25;
#X obj 313 229 print beat;
#X msg 119 74 tempo \$1;
#X msg 182 74 resolution \$1;
#X msg 279 74 reset 0 \$1;
#X floatatom 119 55 5 0 0 2 tempo tempo -, f 5;
#X floatatom 182 56 5 0 0 2 resolution resolution -, f 5;
#X floatatom 279 56 5 0 0 2 quantum quantum -, f 5;
#X obj 182 160 t b b b b b;
#X obj 227 251 f 880;
#X obj 151 299 f 440;
#X obj 186 251 f 440;
#X obj 186 122 abl_link~ 1 0 4 140;
#X connect 0 0 1 1;
#X connect 1 0 9 0;
#X connect 3 0 1 0;
#X connect 4 0 3 0;
#X connect 4 0 3 0;
#X connect 5 0 10 0;
#X connect 6 0 7 0;
#X connect 9 0 2 0;
#X connect 9 0 2 1;
#X connect 11 0 21 0;
#X connect 12 0 21 0;
#X connect 13 0 21 0;
#X connect 14 0 11 0;
#X connect 15 0 12 0;
#X connect 16 0 13 0;
#X connect 17 0 4 0;
#X connect 17 1 20 0;
#X connect 17 2 19 0;
#X connect 17 3 6 0;
#X connect 17 4 5 0;
#X connect 18 0 19 1;
#X connect 19 0 0 0;
#X connect 20 0 19 1;
#X connect 21 0 17 0;
#X connect 21 1 8 0;
#X connect 21 1 18 0;
#X connect 21 2 6 1;
#X connect 21 3 5 1;
