#N canvas 550 408 450 300 10;
#X obj 99 156 osc~ 440;
#X obj 99 178 *~;
#X obj 99 222 dac~;
#X obj 155 157 vline~;
#X obj 220 30 bng 15 250 50 0 empty ping empty 17 7 0 10 -262144 -1
-1;
#X msg 155 136 1 \, 0 250;
#X obj 221 69 abl_link~;
#X obj 267 154 f;
#X obj 267 176 print beat;
#X obj 236 178 f;
#X obj 236 200 print phase;
#X obj 238 99 print downbeat;
#X msg 221 48 reset;
#X obj 99 200 *~ 0.25;
#X obj 183 98 t b b b;
#X connect 0 0 1 0;
#X connect 1 0 13 0;
#X connect 3 0 1 1;
#X connect 4 0 12 0;
#X connect 5 0 3 0;
#X connect 5 0 3 0;
#X connect 6 0 14 0;
#X connect 6 1 11 0;
#X connect 6 2 9 1;
#X connect 6 3 7 1;
#X connect 7 0 8 0;
#X connect 9 0 10 0;
#X connect 12 0 6 0;
#X connect 13 0 2 0;
#X connect 13 0 2 1;
#X connect 14 0 5 0;
#X connect 14 1 9 0;
#X connect 14 2 7 0;
