#N canvas 612 242 394 439 10;
#X obj 171 301 osc~ 440;
#X obj 136 341 *~;
#X obj 136 385 dac~;
#X obj 92 299 vline~;
#X msg 92 278 1 \, 0 250;
#X obj 313 207 f;
#X obj 277 236 f;
#X obj 277 258 print phase;
#X obj 136 363 *~ 0.25;
#X obj 313 229 print beat;
#X msg 119 74 tempo \$1;
#X msg 182 74 resolution \$1;
#X msg 279 74 reset 0 \$1;
#X floatatom 119 55 5 0 0 2 tempo tempo -, f 5;
#X floatatom 182 56 5 0 0 2 resolution resolution -, f 5;
#X floatatom 279 56 5 0 0 2 quantum quantum -, f 5;
#X obj 211 266 f 440;
#X obj 186 122 abl_link~ 1 0 4 140;
#X obj 252 311 loadbang;
#X obj 252 355 print state_quantum;
#X obj 252 333 abl_link_state;
#X obj 251 377 print state_tempo;
#X obj 166 266 f 880;
#X obj 182 160 t b f b b;
#X obj 166 221 select 0;
#X obj 166 245 bng 15 250 50 0 empty empty empty 17 7 0 10 -262144
-1 -1;
#X obj 211 245 bng 15 250 50 0 empty empty empty 17 7 0 10 -262144
-1 -1;
#X connect 0 0 1 1;
#X connect 1 0 8 0;
#X connect 3 0 1 0;
#X connect 4 0 3 0;
#X connect 4 0 3 0;
#X connect 5 0 9 0;
#X connect 6 0 7 0;
#X connect 8 0 2 0;
#X connect 8 0 2 1;
#X connect 10 0 17 0;
#X connect 11 0 17 0;
#X connect 12 0 17 0;
#X connect 13 0 10 0;
#X connect 14 0 11 0;
#X connect 15 0 12 0;
#X connect 16 0 0 0;
#X connect 17 0 23 0;
#X connect 17 1 6 1;
#X connect 17 2 5 1;
#X connect 18 0 20 0;
#X connect 20 0 19 0;
#X connect 20 1 21 0;
#X connect 22 0 0 0;
#X connect 23 0 4 0;
#X connect 23 1 24 0;
#X connect 23 2 6 0;
#X connect 23 3 5 0;
#X connect 24 0 25 0;
#X connect 24 1 26 0;
#X connect 25 0 22 0;
#X connect 26 0 16 0;
